Clean Scene Releases and no fakes    http://bitxtre.me/


-------------------------------------------------------------------------------------
                                   nfo

Ripper ...........:IMAGiNE 
IMDB Rating.......:5.3/10 
Video Codec.......:XVID 
Release Date......:28/12/10
Audio Codec.......:MP3 
Theatre Date......:22/12/10
Audio Bitrate.....:128 
Runtime...........:1h 33mn
Subtitles.........:NIL 
Language..........:ENGLISH
Resolution........:720 x 400 
IMDb URL..........:http://www.imdb.com/title/tt0970866/



DETAILS:

Video
ID : 0
Format : MPEG-4 Visual
Format profile : Advanced Simple@L5
Format settings, BVOP : Yes
Format settings, QPel : No
Format settings, GMC : No warppoints
Format settings, Matrix : Default (MPEG)
Muxing mode : Packed bitstream
Codec ID : XVID
Codec ID/Hint : XviD
Duration : 1h 33mn
Bit rate : 1 973 Kbps
Width : 720 pixels
Height : 400 pixels
Display aspect ratio : 16/9
Frame rate : 25.000 fps
Resolution : 24 bits
Colorimetry : 4:2:0
Scan type : Progressive
Bits/(Pixel*Frame) : 0.274
Stream size : 1.29 GiB (93%)
Writing library : XviD 1.2.1 (UTC 2008-12-04)

Audio
ID : 1
Format : MPEG Audio
Format version : Version 1
Format profile : Layer 3
Codec ID : 55
Codec ID/Hint : MP3
Duration : 1h 33mn
Bit rate mode : Constant
Bit rate : 128 Kbps
Channel(s) : 2 channels
Sampling rate : 44.1 KHz
Resolution : 16 bits
Stream size : 85.6 MiB (6%)
Alignment : Split accross interleaves
Interleave, duration : 40 ms (1.00 video frame)
Interleave, preload duration : 500 ms


SOURCES:

VIDEO:Serenity Thanks 
AUDIO:Own 


NOTES:

IMAGiNE bringing you another release.......... Little Fockers v2

Ok we thought we'd do another version with a higher bitrate to hold better Q and higher res.
And no it's not an upscale,we used the Serenity source files they were kind enough to send which allowed us
to do this.
Difference between this and v1 ......well better res,better rip due to using source files,higher bitrate,no watermarks "team Serenity"
and also tweaked differently compared to v1.
Audio is our own again and needed to be resynced due to using the untouched source files.

Enjoy folks......

SCREENS:






